<?xml version="1.0" encoding="UTF-8"?>
<svg id="Livello_2" data-name="Livello 2" xmlns="http://www.w3.org/2000/svg" viewBox="0 0 629.37 511.25">
  <defs>
    <style>
      .cls-1 {
        fill: #265787;
      }

      .cls-1, .cls-2, .cls-3 {
        stroke-width: 0px;
      }

      .cls-2 {
        fill: #ea7600;
      }

      .cls-3 {
        fill: #fff;
      }
    </style>
  </defs>
  <g id="Livello_1-2" data-name="Livello 1">
    <path class="cls-3" d="M247.58,283.66c2.29-40.91,22.33-76.95,52.55-102.5,29.64-25.1,69.53-40.43,113.06-40.43s83.38,15.34,113.04,40.43c30.2,25.55,50.24,61.59,52.55,102.46,2.29,42.04-14.6,81.09-44.24,110.03-30.22,29.44-73.21,47.92-121.35,47.92s-91.21-18.48-121.41-47.92c-29.66-28.95-46.51-68-44.2-109.99h0Z"/>
    <g>
      <path class="cls-1" d="M328.09,287.36c1.18-20.99,11.46-39.49,26.96-52.6,15.21-12.88,35.68-20.75,58.01-20.75s42.78,7.87,58,20.75c15.5,13.11,25.78,31.6,26.96,52.57,1.18,21.57-7.49,41.61-22.7,56.46-15.51,15.11-37.57,24.59-62.27,24.59s-46.8-9.48-62.3-24.59c-15.22-14.85-23.87-34.89-22.68-56.44h0Z"/>
      <path class="cls-2" d="M192.77,329.87c.14,8.21,2.76,24.18,6.69,36.64,8.26,26.39,22.27,50.8,41.76,72.31,20,22.11,44.64,39.87,73.09,52.48,29.91,13.24,62.31,19.99,95.97,19.94,33.6-.04,66.01-6.93,95.91-20.27,28.45-12.73,53.06-30.57,73.03-52.7,19.48-21.6,33.47-46.06,41.75-72.44,4.16-13.33,6.79-26.86,7.85-40.44,1.03-13.38.6-26.77-1.3-40.16-3.71-26.09-12.73-50.56-26.63-72.88-12.71-20.5-29.1-38.45-48.58-53.56l.04-.03L355.76,7.81c-.18-.13-.32-.28-.51-.4-12.9-9.9-34.59-9.87-48.78.06-14.34,10.04-15.99,26.63-3.22,37.1l-.06.06,82,66.68-249.94.27h-.33c-20.66.02-40.52,13.58-44.45,30.7-4.04,17.45,9.99,31.93,31.47,32l-.03.08,126.68-.24L22.54,347.62c-.29.21-.6.43-.87.64-21.32,16.33-28.22,43.48-14.79,60.67,13.63,17.47,42.62,17.51,64.16.1l123.38-100.97s-1.8,13.63-1.65,21.81h0ZM509.8,375.52c-25.42,25.9-61.01,40.58-99.52,40.66-38.56.07-74.15-14.49-99.58-40.34-12.42-12.6-21.55-27.1-27.18-42.54-5.52-15.17-7.66-31.28-6.24-47.53,1.34-15.89,6.07-31.04,13.62-44.75,7.42-13.48,17.63-25.65,30.24-35.96,24.71-20.14,56.17-31.04,89.07-31.08,32.94-.04,64.37,10.76,89.11,30.83,12.59,10.26,22.79,22.39,30.21,35.84,7.58,13.7,12.28,28.8,13.68,44.72,1.4,16.23-.74,32.31-6.26,47.5-5.64,15.49-14.73,29.98-27.15,42.64h0Z"/>
    </g>
  </g>
</svg>